<svg width="120" height="83" viewBox="0 0 120 83" fill="none" xmlns="http://www.w3.org/2000/svg">
<path d="M55.7141 0V55.9482C55.7141 64.6096 53.2561 71.2813 48.3402 75.9631C43.5022 80.645 36.9476 82.9859 28.6764 82.9859C20.0149 82.9859 13.0702 80.5279 7.84211 75.612C2.61404 70.696 0 63.7123 0 54.6607H19.8979C19.8979 58.094 20.6002 60.7081 22.0047 62.5028C23.4093 64.2195 25.4381 65.0778 28.0911 65.0778C30.5101 65.0778 32.3828 64.2975 33.7094 62.7369C35.0359 61.1763 35.6992 58.9134 35.6992 55.9482V22.5003L52.5744 17.4286C52.9421 17.318 53.1939 16.9795 53.1939 16.5954V16.5954C53.1939 15.8584 52.8212 15.1714 52.1936 14.785C50.8561 13.9613 48.4366 12.5307 46.5643 11.7558C45.8909 11.4771 45.1386 11.2212 44.3526 10.9884C39.514 9.55486 35.6992 5.45213 35.6992 0.405579V0H55.7141Z" fill="#C19113"/>
<path d="M120 26.4525C120 31.2124 118.908 35.5821 116.723 39.5617C114.538 43.4632 111.182 46.6235 106.657 49.0424C102.131 51.4614 96.5127 52.6709 89.802 52.6709H77.3951V82.1666H57.3802V0H89.802C96.3566 0 101.897 1.13145 106.423 3.39434C110.948 5.65724 114.343 8.77848 116.606 12.7581C118.869 16.7376 120 21.3024 120 26.4525ZM88.2804 36.7526C92.1039 36.7526 94.952 35.8552 96.8248 34.0605C98.6975 32.2658 99.6339 29.7298 99.6339 26.4525C99.6339 23.1752 98.6975 20.6392 96.8248 18.8445C94.952 17.0498 92.1039 16.1524 88.2804 16.1524H87.3951C81.8723 16.1524 77.3951 20.6296 77.3951 26.1524V36.7526H88.2804Z" fill="#C19113"/>
</svg>
