<svg width="46" height="46" viewBox="0 0 46 46" fill="none" xmlns="http://www.w3.org/2000/svg">
<path d="M41.9 23C43.0598 23 44.0109 23.9426 43.8951 25.0966C43.5527 28.5092 42.3782 31.7975 40.4609 34.667C38.1534 38.1204 34.8736 40.812 31.0364 42.4015C27.1991 43.9909 22.9767 44.4068 18.9031 43.5965C14.8295 42.7862 11.0877 40.7861 8.15076 37.8492C5.21385 34.9123 3.2138 31.1705 2.40351 27.0969C1.59322 23.0233 2.00909 18.8009 3.59853 14.9636C5.18797 11.1264 7.87959 7.84665 11.333 5.53914C14.2025 3.62183 17.4908 2.44731 20.9034 2.1049C22.0574 1.98912 23 2.9402 23 4.1V4.1C23 5.2598 22.0562 6.18647 20.9054 6.33107C18.3249 6.65533 15.8448 7.57577 13.6664 9.03131C10.9037 10.8773 8.75038 13.5011 7.47882 16.5709C6.20727 19.6407 5.87457 23.0186 6.52281 26.2775C7.17104 29.5364 8.77108 32.5299 11.1206 34.8794C13.4701 37.2289 16.4636 38.829 19.7225 39.4772C22.9814 40.1254 26.3593 39.7927 29.4291 38.5212C32.4989 37.2496 35.1227 35.0963 36.9687 32.3336C38.4242 30.1552 39.3447 27.6751 39.6689 25.0946C39.8135 23.9438 40.7402 23 41.9 23V23Z" fill="#0B2F74"/>
</svg>
