<svg width="24" height="24" viewBox="0 0 24 24" fill="none" xmlns="http://www.w3.org/2000/svg">
<rect width="24" height="24" rx="4" fill="#FAFAFA"/>
<g clip-path="url(#clip0_4162_1772)">
<path d="M12.2391 4C9.92578 4 8.17703 4.94334 6.85032 6.89094C6.25125 7.77063 6.44594 8.96281 7.29313 9.60531L8.44094 10.4756C8.77875 10.7319 9.19688 10.8753 9.62032 10.8806C9.25032 11.4744 9.06344 12.1497 9.06344 12.8978V13.255C9.06344 13.7669 9.25719 14.2344 9.57532 14.5878C9.06219 15.1625 8.75 15.9203 8.75 16.75C8.75 18.5422 10.2078 20 12 20C13.7922 20 15.25 18.5422 15.25 16.75C15.25 15.9203 14.9378 15.1625 14.4247 14.5878C14.6953 14.2872 14.8756 13.9044 14.9238 13.4822C15.8077 12.9555 17.9238 11.9542 17.9238 9.16313C17.9238 6.22347 15.0793 4 12.2391 4ZM12 18.5C11.035 18.5 10.25 17.715 10.25 16.75C10.25 15.7852 11.0349 15 12 15C12.9652 15 13.75 15.7854 13.75 16.75C13.75 17.715 12.965 18.5 12 18.5ZM13.4366 12.9934V13.255C13.4366 13.5296 13.2137 13.75 12.9416 13.75H11.0584C10.7863 13.75 10.5634 13.5297 10.5634 13.255V12.8978C10.5634 11.4234 11.6813 10.8341 12.5263 10.3603C13.2506 9.95406 13.6947 9.67813 13.6947 9.14031C13.6947 8.42875 12.7872 7.95656 12.0534 7.95656C11.0969 7.95656 10.6553 8.40938 10.0347 9.19281C9.86703 9.40441 9.56103 9.44313 9.34719 9.28031L8.19938 8.41C7.98875 8.25031 7.94157 7.95375 8.09032 7.73531C9.065 6.30406 10.3063 5.5 12.2391 5.5C14.2631 5.5 16.4238 7.08 16.4238 9.16313C16.4238 11.9291 13.4366 11.9716 13.4366 12.9934Z" fill="black"/>
</g>
<defs>
<clipPath id="clip0_4162_1772">
<rect width="12" height="16" fill="white" transform="translate(6 4)"/>
</clipPath>
</defs>
</svg>
