<svg width="24" height="24" viewBox="0 0 24 24" fill="none" xmlns="http://www.w3.org/2000/svg">
<rect width="24" height="24" rx="4" fill="#FAFAFA"/>
<g clip-path="url(#clip0_4162_1745)">
<path d="M12.9725 16.4326L12.8025 17.9576C12.775 18.2126 12.99 18.4276 13.2425 18.3976L14.765 18.2276L18.2125 14.7801L16.42 12.9876L12.9725 16.4326ZM19.825 12.3226L18.8775 11.3751C18.645 11.1426 18.265 11.1426 18.0325 11.3751L16.9875 12.4201L18.7825 14.2126L19.8275 13.1676C20.0575 12.9351 20.0575 12.5576 19.825 12.3226ZM9.5975 12.8001C11.5875 12.8026 13.2025 11.1876 13.2 9.1976C13.1975 7.2401 11.56 5.6026 9.6025 5.6001C7.6125 5.5976 5.9975 7.2126 6 9.2026C6.0025 11.1601 7.64 12.7976 9.5975 12.8001ZM9.4875 6.8026C10.9 6.7376 12.0625 7.9001 11.9975 9.3126C11.94 10.5426 10.945 11.5401 9.7125 11.5976C8.3 11.6626 7.1375 10.5001 7.2025 9.0876C7.26 7.8551 8.2575 6.8601 9.4875 6.8026ZM7.36 14.4001C7.725 14.4001 8.3175 14.8001 9.6 14.8001C10.8925 14.8001 11.4725 14.4001 11.84 14.4001C12.2575 14.4001 12.645 14.5251 12.9775 14.7326L13.8375 13.8726C13.2775 13.4551 12.5925 13.2001 11.84 13.2001C11.1225 13.2001 10.7775 13.6001 9.6 13.6001C8.4225 13.6001 8.08 13.2001 7.36 13.2001C5.505 13.2001 4 14.7051 4 16.5601V17.2001C4 17.8626 4.5375 18.4001 5.2 18.4001H11.6575C11.5625 18.0351 11.6025 17.8926 11.68 17.2001H5.2V16.5601C5.2 15.3701 6.17 14.4001 7.36 14.4001Z" fill="black"/>
</g>
<defs>
<clipPath id="clip0_4162_1745">
<rect width="16" height="12.8" fill="white" transform="translate(4 5.6001)"/>
</clipPath>
</defs>
</svg>
