<svg width="56" height="56" viewBox="0 0 56 56" fill="none" xmlns="http://www.w3.org/2000/svg">
<ellipse cx="28" cy="28" rx="27.4167" ry="28" fill="#FAFAFA"/>
<path fill-rule="evenodd" clip-rule="evenodd" d="M16.5729 19.2366C16 20.0252 16 21.1502 16 23.4V24.3C16 24.7971 16.4029 25.2 16.9 25.2H17.2C18.5255 25.2 19.6 26.2745 19.6 27.6C19.6 28.9255 18.5255 30 17.2 30H16.9C16.4029 30 16 30.4029 16 30.9V31.8C16 34.0498 16 35.1748 16.5729 35.9634C16.758 36.218 16.982 36.442 17.2366 36.6271C18.0252 37.2 19.1502 37.2 21.4 37.2H34.6C36.8498 37.2 37.9748 37.2 38.7634 36.6271C39.018 36.442 39.242 36.218 39.4271 35.9634C40 35.1748 40 34.0498 40 31.8V30.9C40 30.4029 39.5971 30 39.1 30H38.8C37.4745 30 36.4 28.9255 36.4 27.6C36.4 26.2745 37.4745 25.2 38.8 25.2H39.1C39.5971 25.2 40 24.7971 40 24.3V23.4C40 21.1502 40 20.0252 39.4271 19.2366C39.242 18.982 39.018 18.758 38.7634 18.5729C37.9748 18 36.8498 18 34.6 18H21.4C19.1502 18 18.0252 18 17.2366 18.5729C16.982 18.758 16.758 18.982 16.5729 19.2366ZM27.9346 25.2071C27.7707 25.2433 27.6699 25.5043 27.4681 26.0263L27.4681 26.0263C27.3534 26.3231 27.296 26.4715 27.1887 26.5725C27.1586 26.6008 27.1259 26.626 27.0911 26.6478C26.967 26.7254 26.8121 26.7398 26.5024 26.7685H26.5024C25.978 26.8173 25.7158 26.8416 25.6358 26.9968C25.6192 27.0289 25.6079 27.0637 25.6024 27.0997C25.5759 27.2735 25.7686 27.4555 26.1541 27.8194L26.2611 27.9205C26.4414 28.0907 26.5315 28.1757 26.5836 28.2819C26.6149 28.3456 26.6358 28.4142 26.6457 28.485C26.662 28.6029 26.6356 28.7263 26.5829 28.9732L26.564 29.0614C26.4694 29.504 26.422 29.7254 26.4811 29.8342C26.5342 29.9319 26.6319 29.9945 26.7399 29.9998C26.8601 30.0058 27.0294 29.8626 27.3682 29.5761C27.5913 29.3874 27.7029 29.2931 27.8268 29.2562C27.94 29.2225 28.06 29.2225 28.1732 29.2562C28.2971 29.2931 28.4087 29.3874 28.6318 29.5761C28.9706 29.8626 29.1399 30.0058 29.2601 29.9998C29.3681 29.9945 29.4658 29.9319 29.5189 29.8342C29.578 29.7254 29.5306 29.504 29.436 29.0614L29.4171 28.9732C29.3644 28.7263 29.338 28.6029 29.3543 28.485C29.3642 28.4142 29.3851 28.3456 29.4164 28.2819C29.4685 28.1757 29.5586 28.0907 29.7389 27.9205L29.8459 27.8194C30.2314 27.4555 30.4241 27.2735 30.3976 27.0997C30.3921 27.0637 30.3808 27.0289 30.3642 26.9968C30.2842 26.8416 30.022 26.8173 29.4976 26.7685H29.4976C29.1879 26.7398 29.033 26.7254 28.9089 26.6478C28.8741 26.626 28.8414 26.6008 28.8113 26.5725C28.704 26.4715 28.6466 26.3231 28.5319 26.0263L28.5319 26.0263C28.3301 25.5043 28.2293 25.2433 28.0654 25.2071C28.0223 25.1976 27.9777 25.1976 27.9346 25.2071Z" fill="#0B2F74"/>
</svg>
