<svg width="56" height="56" viewBox="0 0 56 56" fill="none" xmlns="http://www.w3.org/2000/svg">
<ellipse cx="28" cy="28" rx="27.4167" ry="28" fill="#FAFAFA"/>
<g clip-path="url(#clip0_4162_2940)">
<path d="M35.5034 20.5H20.5001C19.2635 20.4998 18.046 20.8054 16.9561 21.3896C15.8662 21.9737 14.9376 22.8183 14.253 23.8482C13.5685 24.878 13.1492 26.0611 13.0325 27.2922C12.9158 28.5233 13.1053 29.7641 13.5841 30.9042C14.063 32.0444 14.8163 33.0484 15.7771 33.827C16.7378 34.6055 17.8762 35.1344 19.0908 35.3666C20.3054 35.5988 21.5586 35.5271 22.7387 35.1578C23.9189 34.7885 24.9895 34.1331 25.8551 33.25H30.1451C31.0106 34.133 32.081 34.7883 33.261 35.1576C34.4411 35.527 35.6941 35.5988 36.9086 35.3668C38.1231 35.1347 39.2614 34.606 40.2221 33.8277C41.1829 33.0494 41.9363 32.0456 42.4154 30.9058C42.8944 29.7659 43.0842 28.5252 42.9679 27.2942C42.8515 26.0633 42.4326 24.8802 41.7485 23.8502C41.0644 22.8203 40.1362 21.9754 39.0466 21.3909C37.957 20.8064 36.7398 20.5004 35.5034 20.5ZM24.6251 28.5625C24.6251 28.7117 24.5658 28.8548 24.4603 28.9602C24.3548 29.0657 24.2118 29.125 24.0626 29.125H21.6251V31.5625C21.6251 31.7117 21.5658 31.8548 21.4603 31.9602C21.3548 32.0657 21.2118 32.125 21.0626 32.125H19.9376C19.7884 32.125 19.6453 32.0657 19.5398 31.9602C19.4343 31.8548 19.3751 31.7117 19.3751 31.5625V29.125H16.9376C16.7884 29.125 16.6453 29.0657 16.5398 28.9602C16.4343 28.8548 16.3751 28.7117 16.3751 28.5625V27.4375C16.3751 27.2883 16.4343 27.1452 16.5398 27.0398C16.6453 26.9343 16.7884 26.875 16.9376 26.875H19.3751V24.4375C19.3751 24.2883 19.4343 24.1452 19.5398 24.0398C19.6453 23.9343 19.7884 23.875 19.9376 23.875H21.0626C21.2118 23.875 21.3548 23.9343 21.4603 24.0398C21.5658 24.1452 21.6251 24.2883 21.6251 24.4375V26.875H24.0626C24.2118 26.875 24.3548 26.9343 24.4603 27.0398C24.5658 27.1452 24.6251 27.2883 24.6251 27.4375V28.5625ZM34.7501 32.125C34.3792 32.125 34.0167 32.015 33.7084 31.809C33.4 31.603 33.1597 31.3101 33.0178 30.9675C32.8759 30.6249 32.8388 30.2479 32.9111 29.8842C32.9835 29.5205 33.162 29.1864 33.4243 28.9242C33.6865 28.662 34.0206 28.4834 34.3843 28.411C34.748 28.3387 35.125 28.3758 35.4676 28.5177C35.8102 28.6596 36.1031 28.9 36.3091 29.2083C36.5151 29.5166 36.6251 29.8792 36.6251 30.25C36.6251 30.7473 36.4275 31.2242 36.0759 31.5758C35.7243 31.9275 35.2474 32.125 34.7501 32.125ZM37.7501 27.625C37.3792 27.625 37.0167 27.515 36.7084 27.309C36.4 27.103 36.1597 26.8101 36.0178 26.4675C35.8759 26.1249 35.8388 25.7479 35.9111 25.3842C35.9835 25.0205 36.162 24.6864 36.4243 24.4242C36.6865 24.162 37.0206 23.9834 37.3843 23.911C37.748 23.8387 38.125 23.8758 38.4676 24.0177C38.8102 24.1596 39.1031 24.4 39.3091 24.7083C39.5151 25.0166 39.6251 25.3792 39.6251 25.75C39.6251 26.2473 39.4275 26.7242 39.0759 27.0758C38.7243 27.4275 38.2474 27.625 37.7501 27.625Z" fill="#0B2F74"/>
</g>
<defs>
<clipPath id="clip0_4162_2940">
<rect width="30" height="24" fill="white" transform="translate(13.0001 16)"/>
</clipPath>
</defs>
</svg>
