<svg width="30" height="24" viewBox="0 0 30 24" fill="none" xmlns="http://www.w3.org/2000/svg">
<g clip-path="url(#clip0_4162_2967)">
<path d="M29.1723 7.18137L16.097 3.16418C15.3845 2.94527 14.6157 2.94527 13.9037 3.16418L0.827895 7.18137C-0.275543 7.52027 -0.275543 8.97949 0.827895 9.3184L3.10743 10.0187C2.60727 10.637 2.29977 11.3912 2.2693 12.2171C1.81789 12.4759 1.50008 12.9428 1.50008 13.5001C1.50008 14.0054 1.76633 14.4306 2.14977 14.7025L0.953051 20.0875C0.848989 20.5557 1.20524 21.0001 1.68477 21.0001H4.31493C4.79493 21.0001 5.15118 20.5557 5.04711 20.0875L3.85039 14.7025C4.23383 14.4306 4.50008 14.0054 4.50008 13.5001C4.50008 12.9578 4.1968 12.504 3.76602 12.2406C3.80164 11.5365 4.16164 10.914 4.73586 10.5193L13.9032 13.3361C14.3279 13.4664 15.1426 13.629 16.0965 13.3361L29.1723 9.31887C30.2762 8.97949 30.2762 7.52074 29.1723 7.18137V7.18137ZM16.5371 14.77C15.1998 15.1806 14.0602 14.9537 13.4626 14.77L6.66477 12.6817L6.00008 18.0001C6.00008 19.6571 10.0295 21.0001 15.0001 21.0001C19.9707 21.0001 24.0001 19.6571 24.0001 18.0001L23.3354 12.6812L16.5371 14.77V14.77Z" fill="#0B2F74"/>
</g>
<defs>
<clipPath id="clip0_4162_2967">
<rect width="30" height="24" fill="white"/>
</clipPath>
</defs>
</svg>
