<svg width="56" height="56" viewBox="0 0 56 56" fill="none" xmlns="http://www.w3.org/2000/svg">
<ellipse cx="28" cy="28" rx="27.4167" ry="28" fill="#FAFAFA"/>
<g clip-path="url(#clip0_4162_2971)">
<path d="M29.875 17.5H38.875C39.4963 17.5 40 18.0037 40 18.625V26.125C40 26.7463 39.4963 27.25 38.875 27.25H29.875C29.2536 27.25 28.75 26.7463 28.75 26.125V18.625C28.75 18.0037 29.2536 17.5 29.875 17.5ZM26.125 17.5H17.125C16.5036 17.5 16 18.0037 16 18.625V26.125C16 26.7463 16.5036 27.25 17.125 27.25H26.125C26.7463 27.25 27.25 26.7463 27.25 26.125V18.625C27.25 18.0037 26.7463 17.5 26.125 17.5ZM16 29.875V37.375C16 37.9963 16.5036 38.5 17.125 38.5H26.125C26.7463 38.5 27.25 37.9963 27.25 37.375V29.875C27.25 29.2537 26.7463 28.75 26.125 28.75H17.125C16.5036 28.75 16 29.2537 16 29.875ZM29.875 38.5H38.875C39.4963 38.5 40 37.9963 40 37.375V29.875C40 29.2537 39.4963 28.75 38.875 28.75H29.875C29.2536 28.75 28.75 29.2537 28.75 29.875V37.375C28.75 37.9963 29.2536 38.5 29.875 38.5Z" fill="#0B2F74"/>
</g>
<defs>
<clipPath id="clip0_4162_2971">
<rect width="24" height="24" fill="white" transform="translate(16 16)"/>
</clipPath>
</defs>
</svg>
