<svg width="48" height="35" viewBox="0 0 48 35" fill="none" xmlns="http://www.w3.org/2000/svg">
<path d="M22.2856 0.902832V23.2821C22.2856 26.7467 21.3024 29.4153 19.3361 31.2881C17.4009 33.1608 14.7791 34.0972 11.4705 34.0972C8.00597 34.0972 5.22807 33.114 3.13684 31.1476C1.04561 29.1812 0 26.3877 0 22.7671H7.95916C7.95916 24.1404 8.24007 25.1861 8.80189 25.9039C9.36371 26.5906 10.1752 26.9339 11.2365 26.9339C12.204 26.9339 12.9531 26.6218 13.4837 25.9976C14.0144 25.3733 14.2797 24.4682 14.2797 23.2821V9.90296L21.0297 7.87426C21.1769 7.83005 21.2776 7.69461 21.2776 7.54101V7.54101C21.2776 7.24619 21.1285 6.97141 20.8775 6.81681C20.3425 6.48734 19.3747 5.91513 18.6257 5.60516C18.4011 5.51217 18.1545 5.42555 17.8964 5.34532C15.8803 4.71854 14.2797 3.01411 14.2797 0.902832V0.902832H22.2856Z" fill="#C19113"/>
<path d="M48 11.4838C48 13.3878 47.563 15.1357 46.6891 16.7275C45.8151 18.2881 44.473 19.5522 42.6627 20.5198C40.8524 21.4874 38.6051 21.9712 35.9208 21.9712H30.958V33.7695H22.9521V0.902832H35.9208C38.5426 0.902832 40.7587 1.35541 42.569 2.26057C44.3794 3.16573 45.7371 4.41422 46.6423 6.00605C47.5474 7.59788 48 9.42381 48 11.4838ZM35.3122 15.6039C36.8416 15.6039 37.9808 15.2449 38.7299 14.527C39.479 13.8091 39.8536 12.7947 39.8536 11.4838C39.8536 10.1729 39.479 9.15851 38.7299 8.44062C37.9808 7.72274 36.8416 7.36379 35.3122 7.36379V7.36379C32.9074 7.36379 30.958 9.3132 30.958 11.7179V15.6039H35.3122Z" fill="#C19113"/>
</svg>
