<svg width="24" height="24" viewBox="0 0 24 24" fill="none" xmlns="http://www.w3.org/2000/svg">
<rect width="24" height="24" rx="4" fill="#FAFAFA"/>
<g clip-path="url(#clip0_4162_1788)">
<path d="M9.1 11.2033C8.95312 11.0564 8.71562 11.0564 8.56875 11.2002L7.85938 11.9033C7.7125 12.0502 7.7125 12.2877 7.85625 12.4346L10.6937 15.2939C10.8406 15.4408 11.0781 15.4408 11.225 15.2971L16.6187 9.94707C16.7656 9.8002 16.7656 9.5627 16.6219 9.41582L15.9187 8.70645C15.7719 8.55957 15.5344 8.55957 15.3875 8.70332L10.9688 13.0846L9.1 11.2033ZM18.5781 6.61582L12.5781 4.11582C12.3954 4.04 12.1994 4.00098 12.0016 4.00098C11.8037 4.00098 11.6078 4.04 11.425 4.11582L5.425 6.61582C4.86562 6.84707 4.5 7.39395 4.5 8.0002C4.5 14.2033 8.07812 18.4908 11.4219 19.8846C11.7906 20.0377 12.2062 20.0377 12.575 19.8846C15.2531 18.7689 19.5 14.9158 19.5 8.0002C19.5 7.39395 19.1344 6.84707 18.5781 6.61582ZM12 18.5002C8.95312 17.2314 6 13.2908 6 8.0002L12 5.5002L18 8.0002C18 13.4314 14.925 17.2814 12 18.5002Z" fill="black"/>
</g>
<defs>
<clipPath id="clip0_4162_1788">
<rect width="16" height="16" fill="white" transform="translate(4 4)"/>
</clipPath>
</defs>
</svg>
