<svg width="24" height="24" viewBox="0 0 24 24" fill="none" xmlns="http://www.w3.org/2000/svg">
<rect width="24" height="24" rx="4" fill="#FAFAFA"/>
<g clip-path="url(#clip0_4162_1753)">
<path d="M18.2857 9.71409H17.1429V8.04981C17.1429 5.20695 14.8571 2.86409 12.0143 2.85695C9.17143 2.84981 6.85714 5.16052 6.85714 7.99981V9.71409H5.71429C4.76786 9.71409 4 10.482 4 11.4284V19.4284C4 20.3748 4.76786 21.1427 5.71429 21.1427H18.2857C19.2321 21.1427 20 20.3748 20 19.4284V11.4284C20 10.482 19.2321 9.71409 18.2857 9.71409ZM8.57143 7.99981C8.57143 6.11052 10.1107 4.57124 12 4.57124C13.8893 4.57124 15.4286 6.11052 15.4286 7.99981V9.71409H8.57143V7.99981ZM18.2857 19.4284H5.71429V11.4284H18.2857V19.4284Z" fill="black"/>
</g>
<defs>
<clipPath id="clip0_4162_1753">
<rect width="16" height="18.2857" fill="white" transform="translate(4 2.85693)"/>
</clipPath>
</defs>
</svg>
