<svg width="16" height="20" viewBox="0 0 16 20" fill="none" xmlns="http://www.w3.org/2000/svg">
<g clip-path="url(#clip0_4162_1754)">
<path d="M14.2857 7.71409H13.1429V6.04981C13.1429 3.20695 10.8571 0.864093 8.01429 0.85695C5.17143 0.849807 2.85714 3.16052 2.85714 5.99981V7.71409H1.71429C0.767857 7.71409 0 8.48195 0 9.42838V17.4284C0 18.3748 0.767857 19.1427 1.71429 19.1427H14.2857C15.2321 19.1427 16 18.3748 16 17.4284V9.42838C16 8.48195 15.2321 7.71409 14.2857 7.71409ZM4.57143 5.99981C4.57143 4.11052 6.11071 2.57124 8 2.57124C9.88929 2.57124 11.4286 4.11052 11.4286 5.99981V7.71409H4.57143V5.99981ZM14.2857 17.4284H1.71429V9.42838H14.2857V17.4284Z" fill="black"/>
</g>
<defs>
<clipPath id="clip0_4162_1754">
<rect width="16" height="18.2857" fill="white" transform="translate(0 0.856934)"/>
</clipPath>
</defs>
</svg>
