<svg width="56" height="56" viewBox="0 0 56 56" fill="none" xmlns="http://www.w3.org/2000/svg">
<ellipse cx="28" cy="28" rx="27.4167" ry="28" fill="#FAFAFA"/>
<g clip-path="url(#clip0_4162_2928)">
<path d="M33.7501 16H23.2501C22.0079 16 21.0001 17.0078 21.0001 18.25V37.75C21.0001 38.9922 22.0079 40 23.2501 40H33.7501C34.9923 40 36.0001 38.9922 36.0001 37.75V18.25C36.0001 17.0078 34.9923 16 33.7501 16ZM28.5001 38.5C27.6704 38.5 27.0001 37.8297 27.0001 37C27.0001 36.1703 27.6704 35.5 28.5001 35.5C29.3298 35.5 30.0001 36.1703 30.0001 37C30.0001 37.8297 29.3298 38.5 28.5001 38.5Z" fill="#0B2F74"/>
</g>
<defs>
<clipPath id="clip0_4162_2928">
<rect width="15" height="24" fill="white" transform="translate(21.0001 16)"/>
</clipPath>
</defs>
</svg>
