<svg width="24" height="24" viewBox="0 0 24 24" fill="none" xmlns="http://www.w3.org/2000/svg">
<rect width="24" height="24" rx="4" fill="#FAFAFA"/>
<g clip-path="url(#clip0_4162_1761)">
<path d="M18.6694 9.65242L14.6111 9.06076L12.7972 5.38298C12.4722 4.72742 11.5306 4.71909 11.2028 5.38298L9.38889 9.06076L5.33055 9.65242C4.60277 9.75798 4.31111 10.6552 4.83889 11.1691L7.775 14.0302L7.08055 18.0719C6.95555 18.8024 7.725 19.3496 8.36944 19.008L12 17.0996L15.6306 19.008C16.275 19.3469 17.0444 18.8024 16.9194 18.0719L16.225 14.0302L19.1611 11.1691C19.6889 10.6552 19.3972 9.75798 18.6694 9.65242ZM14.7944 13.5635L15.4528 17.408L12 15.5941L8.54722 17.408L9.20555 13.5635L6.41111 10.8413L10.2722 10.2802L12 6.7802L13.7278 10.2802L17.5889 10.8413L14.7944 13.5635Z" fill="black"/>
</g>
<defs>
<clipPath id="clip0_4162_1761">
<rect width="16" height="14.2222" fill="white" transform="translate(4 4.88867)"/>
</clipPath>
</defs>
</svg>
