<svg width="16" height="16" viewBox="0 0 16 16" fill="none" xmlns="http://www.w3.org/2000/svg">
<g clip-path="url(#clip0_4162_1789)">
<path d="M5.1 7.20332C4.95312 7.05645 4.71562 7.05645 4.56875 7.2002L3.85938 7.90332C3.7125 8.0502 3.7125 8.2877 3.85625 8.43457L6.69375 11.2939C6.84062 11.4408 7.07812 11.4408 7.225 11.2971L12.6187 5.94707C12.7656 5.8002 12.7656 5.5627 12.6219 5.41582L11.9187 4.70645C11.7719 4.55957 11.5344 4.55957 11.3875 4.70332L6.96875 9.08457L5.1 7.20332ZM14.5781 2.61582L8.57812 0.115822C8.39536 0.0400032 8.19943 0.000976563 8.00156 0.000976562C7.80369 0.000976563 7.60777 0.0400032 7.425 0.115822L1.425 2.61582C0.865625 2.84707 0.5 3.39395 0.5 4.0002C0.5 10.2033 4.07812 14.4908 7.42188 15.8846C7.79063 16.0377 8.20625 16.0377 8.575 15.8846C11.2531 14.7689 15.5 10.9158 15.5 4.0002C15.5 3.39395 15.1344 2.84707 14.5781 2.61582ZM8 14.5002C4.95312 13.2314 2 9.29082 2 4.0002L8 1.5002L14 4.0002C14 9.43145 10.925 13.2814 8 14.5002Z" fill="black"/>
</g>
<defs>
<clipPath id="clip0_4162_1789">
<rect width="16" height="16" fill="white"/>
</clipPath>
</defs>
</svg>
