<svg width="16" height="16" viewBox="0 0 16 16" fill="none" xmlns="http://www.w3.org/2000/svg">
<g clip-path="url(#clip0_4162_1762)">
<path d="M14.6694 5.65242L10.6111 5.06076L8.79722 1.38298C8.47222 0.727425 7.53055 0.719091 7.20277 1.38298L5.38889 5.06076L1.33055 5.65242C0.602774 5.75798 0.311107 6.6552 0.838885 7.16909L3.775 10.0302L3.08055 14.0719C2.95555 14.8024 3.725 15.3496 4.36944 15.008L8 13.0996L11.6306 15.008C12.275 15.3469 13.0444 14.8024 12.9194 14.0719L12.225 10.0302L15.1611 7.16909C15.6889 6.6552 15.3972 5.75798 14.6694 5.65242V5.65242ZM10.7944 9.56354L11.4528 13.408L8 11.5941L4.54722 13.408L5.20555 9.56354L2.41111 6.84131L6.27222 6.2802L8 2.7802L9.72777 6.2802L13.5889 6.84131L10.7944 9.56354V9.56354Z" fill="black"/>
</g>
<defs>
<clipPath id="clip0_4162_1762">
<rect width="16" height="14.2222" fill="white" transform="translate(0 0.888672)"/>
</clipPath>
</defs>
</svg>
