<svg width="24" height="24" viewBox="0 0 24 24" fill="none" xmlns="http://www.w3.org/2000/svg">
<rect width="24" height="24" rx="4" fill="#FAFAFA"/>
<g clip-path="url(#clip0_4162_1780)">
<path d="M21 14.5H19V6.75C19 5.23375 17.7666 4 16.25 4H4.5C3.12125 4 2 5.12156 2 6.5V8.5C2 9.05125 2.44813 9.5 3 9.5H5.5V16.6075C5.5 18.34 6.80281 19.9031 8.58313 19.9919V20H18.3331C20.3556 20 22 18.355 22 16.3334V15.5C22 14.9487 21.5519 14.5 21 14.5ZM3.5 8V6.5C3.5 5.94875 3.94813 5.5 4.5 5.5C5.05188 5.5 5.5 5.94875 5.5 6.5V8H3.5ZM7 16.6075V6.5C7 6.14438 6.92562 5.80625 6.79094 5.5H16.25C16.9394 5.5 17.5 6.06063 17.5 6.75V14.5H11.5C10.9481 14.5 10.5 14.9487 10.5 15.5V16.75C10.5 18.9994 7 19.1897 7 16.6075ZM20.5 16.3334C20.5 17.5281 19.5284 18.5 18.3331 18.5H11.4722C11.8056 17.9806 12 17.3775 12 16.75V16H20.5V16.3334Z" fill="black"/>
</g>
<defs>
<clipPath id="clip0_4162_1780">
<rect width="20" height="16" fill="white" transform="translate(2 4)"/>
</clipPath>
</defs>
</svg>
