<svg width="17" height="24" viewBox="0 0 17 24" fill="none" xmlns="http://www.w3.org/2000/svg">
<g clip-path="url(#clip0_4162_2948)">
<path d="M9.61966 1.03549C9.24747 -0.313577 7.30216 -0.376389 6.88028 1.03549C4.68794 8.43049 -3.05176e-05 10.44 -3.05176e-05 15.652C-3.05176e-05 20.2664 3.68997 24 8.24997 24C12.81 24 16.5 20.2664 16.5 15.652C16.5 10.4138 11.8223 8.46424 9.61966 1.03549V1.03549ZM8.24997 21C5.35544 21 2.99997 18.6445 2.99997 15.75C2.99997 15.3356 3.33559 15 3.74997 15C4.16434 15 4.49997 15.3356 4.49997 15.75C4.49997 17.8177 6.18231 19.5 8.24997 19.5C8.66434 19.5 8.99997 19.8356 8.99997 20.25C8.99997 20.6644 8.66434 21 8.24997 21Z" fill="#0B2F74"/>
</g>
<defs>
<clipPath id="clip0_4162_2948">
<rect width="16.5" height="24" fill="white"/>
</clipPath>
</defs>
</svg>
