<svg width="16" height="14" viewBox="0 0 16 14" fill="none" xmlns="http://www.w3.org/2000/svg">
<g clip-path="url(#clip0_4162_1746)">
<path d="M8.9725 11.4326L8.8025 12.9576C8.775 13.2126 8.99 13.4276 9.2425 13.3976L10.765 13.2276L14.2125 9.7801L12.42 7.9876L8.9725 11.4326V11.4326ZM15.825 7.3226L14.8775 6.3751C14.645 6.1426 14.265 6.1426 14.0325 6.3751L12.9875 7.4201L14.7825 9.2126L15.8275 8.1676C16.0575 7.9351 16.0575 7.5576 15.825 7.3226ZM5.5975 7.8001C7.5875 7.8026 9.2025 6.1876 9.2 4.1976C9.1975 2.2401 7.56 0.602601 5.6025 0.600101C3.6125 0.597601 1.9975 2.2126 2 4.2026C2.0025 6.1601 3.64 7.7976 5.5975 7.8001ZM5.4875 1.8026C6.9 1.7376 8.0625 2.9001 7.9975 4.3126C7.94 5.5426 6.945 6.5401 5.7125 6.5976C4.3 6.6626 3.1375 5.5001 3.2025 4.0876C3.26 2.8551 4.2575 1.8601 5.4875 1.8026V1.8026ZM3.36 9.4001C3.725 9.4001 4.3175 9.8001 5.6 9.8001C6.8925 9.8001 7.4725 9.4001 7.84 9.4001C8.2575 9.4001 8.645 9.5251 8.9775 9.7326L9.8375 8.8726C9.2775 8.4551 8.5925 8.2001 7.84 8.2001C7.1225 8.2001 6.7775 8.6001 5.6 8.6001C4.4225 8.6001 4.08 8.2001 3.36 8.2001C1.505 8.2001 0 9.7051 0 11.5601V12.2001C0 12.8626 0.5375 13.4001 1.2 13.4001H7.6575C7.5625 13.0351 7.6025 12.8926 7.68 12.2001H1.2V11.5601C1.2 10.3701 2.17 9.4001 3.36 9.4001Z" fill="black"/>
</g>
<defs>
<clipPath id="clip0_4162_1746">
<rect width="16" height="12.8" fill="white" transform="translate(0 0.600098)"/>
</clipPath>
</defs>
</svg>
