<svg width="20" height="16" viewBox="0 0 20 16" fill="none" xmlns="http://www.w3.org/2000/svg">
<path d="M19 10.5H17V2.75C17 1.23375 15.7666 0 14.25 0H2.5C1.12125 0 0 1.12156 0 2.5V4.5C0 5.05125 0.448125 5.5 1 5.5H3.5V12.6075C3.5 14.34 4.80281 15.9031 6.58313 15.9919V16H16.3331C18.3556 16 20 14.355 20 12.3334V11.5C20 10.9488 19.5519 10.5 19 10.5ZM1.5 4V2.5C1.5 1.94875 1.94813 1.5 2.5 1.5C3.05187 1.5 3.5 1.94875 3.5 2.5V4H1.5ZM5 12.6075V2.5C5 2.14437 4.92562 1.80625 4.79094 1.5H14.25C14.9394 1.5 15.5 2.06063 15.5 2.75V10.5H9.5C8.94813 10.5 8.5 10.9488 8.5 11.5V12.75C8.5 14.9994 5 15.1897 5 12.6075ZM18.5 12.3334C18.5 13.5281 17.5284 14.5 16.3331 14.5H9.47219C9.80562 13.9806 10 13.3775 10 12.75V12H18.5V12.3334Z" fill="black"/>
</svg>
