<svg width="12" height="16" viewBox="0 0 12 16" fill="none" xmlns="http://www.w3.org/2000/svg">
<path d="M6.23907 0C3.92578 0 2.17703 0.943344 0.850315 2.89094C0.251253 3.77063 0.44594 4.96281 1.29313 5.60531L2.44094 6.47563C2.77875 6.73188 3.19688 6.87531 3.62032 6.88062C3.25032 7.47437 3.06344 8.14969 3.06344 8.89781V9.255C3.06344 9.76688 3.25719 10.2344 3.57532 10.5878C3.06219 11.1625 2.75 11.9203 2.75 12.75C2.75 14.5422 4.20782 16 6 16C7.79219 16 9.25 14.5422 9.25 12.75C9.25 11.9203 8.93782 11.1625 8.42469 10.5878C8.69532 10.2872 8.87563 9.90437 8.92375 9.48219C9.80772 8.95553 11.9238 7.95422 11.9238 5.16313C11.9238 2.22347 9.07935 0 6.23907 0ZM6 14.5C5.035 14.5 4.25 13.715 4.25 12.75C4.25 11.7852 5.03494 11 6 11C6.96522 11 7.75 11.7854 7.75 12.75C7.75 13.715 6.965 14.5 6 14.5ZM7.43657 8.99344V9.255C7.43657 9.52963 7.21372 9.75 6.94157 9.75H5.05844C4.78632 9.75 4.56344 9.52966 4.56344 9.255V8.89781C4.56344 7.42344 5.68125 6.83406 6.52625 6.36031C7.25063 5.95406 7.69469 5.67813 7.69469 5.14031C7.69469 4.42875 6.78719 3.95656 6.05344 3.95656C5.09688 3.95656 4.65532 4.40937 4.03469 5.19281C3.86703 5.40441 3.56103 5.44313 3.34719 5.28031L2.19938 4.41C1.98875 4.25031 1.94157 3.95375 2.09032 3.73531C3.065 2.30406 4.30625 1.5 6.23907 1.5C8.26313 1.5 10.4238 3.08 10.4238 5.16313C10.4238 7.92906 7.43657 7.97156 7.43657 8.99344Z" fill="black"/>
</svg>
