<svg width="56" height="56" viewBox="0 0 56 56" fill="none" xmlns="http://www.w3.org/2000/svg">
<ellipse cx="28" cy="28" rx="27.4167" ry="28" fill="#FAFAFA"/>
<g clip-path="url(#clip0_4162_2934)">
<path d="M37.6188 22H19.7501C19.3357 22 19.0001 21.6644 19.0001 21.25C19.0001 20.8356 19.3357 20.5 19.7501 20.5H37.7501C38.1645 20.5 38.5001 20.1644 38.5001 19.75C38.5001 18.5073 37.4927 17.5 36.2501 17.5H19.0001C17.3431 17.5 16.0001 18.843 16.0001 20.5V35.5C16.0001 37.157 17.3431 38.5 19.0001 38.5H37.6188C38.9323 38.5 40.0001 37.4908 40.0001 36.25V24.25C40.0001 23.0092 38.9323 22 37.6188 22ZM35.5001 31.75C34.6718 31.75 34.0001 31.0783 34.0001 30.25C34.0001 29.4217 34.6718 28.75 35.5001 28.75C36.3284 28.75 37.0001 29.4217 37.0001 30.25C37.0001 31.0783 36.3284 31.75 35.5001 31.75Z" fill="#0B2F74"/>
</g>
<defs>
<clipPath id="clip0_4162_2934">
<rect width="24" height="24" fill="white" transform="translate(16.0001 16)"/>
</clipPath>
</defs>
</svg>
