<svg width="30" height="24" viewBox="0 0 30 24" fill="none" xmlns="http://www.w3.org/2000/svg">
<g clip-path="url(#clip0_4162_2961)">
<path d="M29.7615 7.26C21.4566 -0.421406 8.54024 -0.418594 0.238678 7.26C-0.0735097 7.54875 -0.0796034 8.03766 0.222272 8.33719L1.82727 9.92953C2.11508 10.2155 2.57821 10.2216 2.87727 9.94734C9.71727 3.68109 20.282 3.67969 27.1234 9.94734C27.4224 10.2216 27.8856 10.215 28.1734 9.92953L29.7784 8.33719C30.0798 8.03766 30.0737 7.54875 29.7615 7.26ZM15.0001 16.5C13.3431 16.5 12.0001 17.843 12.0001 19.5C12.0001 21.157 13.3431 22.5 15.0001 22.5C16.6571 22.5 18.0001 21.157 18.0001 19.5C18.0001 17.843 16.6571 16.5 15.0001 16.5ZM24.5002 12.5817C19.0974 7.80375 10.8966 7.80891 5.49993 12.5817C5.17649 12.8677 5.16618 13.3641 5.47321 13.6669L7.08758 15.2602C7.36883 15.5377 7.82165 15.5564 8.12118 15.2977C12.0563 11.8959 17.9527 11.9034 21.8785 15.2977C22.1781 15.5564 22.6309 15.5381 22.9121 15.2602L24.5265 13.6669C24.834 13.3641 24.8232 12.8672 24.5002 12.5817V12.5817Z" fill="#0B2F74"/>
</g>
<defs>
<clipPath id="clip0_4162_2961">
<rect width="30" height="24" fill="white"/>
</clipPath>
</defs>
</svg>
